<svg width="140" height="36" fill="none" xmlns="http://www.w3.org/2000/svg"><path fill="#D22856" d="M0 0h140v36H0z"/><path d="M26.932 22h-1.81v-7.055h-3.153V22h-1.817v-8.566h6.78V22Zm7.406 0-.621-2.04h-3.123L29.973 22h-1.957l3.023-8.602h2.22L36.296 22h-1.957Zm-1.055-3.563-.973-3.134a9.912 9.912 0 0 1-.152-.575c-.129.5-.498 1.737-1.107 3.71h2.232ZM44.398 22h-1.81v-3.697h-3.393V22H37.38v-8.566h1.816v3.357h3.393v-3.357h1.81V22Zm9.944-4.295c0 1.418-.352 2.508-1.055 3.27-.703.761-1.71 1.142-3.023 1.142-1.313 0-2.32-.38-3.024-1.142-.703-.762-1.055-1.856-1.055-3.282 0-1.425.352-2.513 1.055-3.263.707-.754 1.719-1.131 3.035-1.131 1.317 0 2.323.379 3.018 1.136.7.758 1.049 1.848 1.049 3.27Zm-6.252 0c0 .957.181 1.678.545 2.162.363.485.906.727 1.629.727 1.449 0 2.173-.963 2.173-2.889 0-1.93-.72-2.894-2.162-2.894-.722 0-1.267.244-1.634.732-.368.484-.551 1.205-.551 2.162Zm9.844-.24h.597c.559 0 .977-.11 1.254-.328.278-.223.416-.545.416-.967 0-.426-.117-.74-.351-.943-.23-.204-.594-.305-1.09-.305h-.826v2.543Zm4.101-1.36c0 .922-.289 1.627-.867 2.116-.574.488-1.393.732-2.455.732h-.78V22h-1.816v-8.566h2.736c1.04 0 1.829.224 2.368.673.543.446.814 1.112.814 1.998ZM68.897 22l-.622-2.04h-3.123l-.62 2.04h-1.958l3.024-8.602h2.22L70.853 22h-1.956Zm-1.055-3.563c-.574-1.847-.899-2.892-.973-3.134a9.83 9.83 0 0 1-.152-.575c-.13.5-.498 1.737-1.108 3.71h2.233ZM75.564 22l-2.062-6.72h-.053c.074 1.367.112 2.279.112 2.736V22h-1.624v-8.566h2.473l2.028 6.55h.035l2.15-6.55h2.473V22h-1.694v-4.055c0-.191.002-.412.006-.662.008-.25.035-.914.082-1.992h-.052L77.228 22h-1.663Zm12.938 0-.621-2.04h-3.123L84.137 22H82.18l3.023-8.602h2.22L90.46 22h-1.957Zm-1.055-3.563c-.574-1.847-.898-2.892-.972-3.134a9.83 9.83 0 0 1-.153-.575c-.129.5-.498 1.737-1.107 3.71h2.232Zm6.194 2.051h.662a20.186 20.186 0 0 0 1.341-3.392c.329-1.133.573-2.354.733-3.662h4.992v7.054h1.143v4.008h-1.752V22h-5.367v2.496H93.64v-4.008Zm4.177-5.543a19.976 19.976 0 0 1-.627 2.842c-.289 1-.615 1.9-.978 2.701h3.346v-5.543h-1.74ZM110.855 22h-1.81v-3.697h-3.393V22h-1.816v-8.566h1.816v3.357h3.393v-3.357h1.81V22Zm5.051-3.287L113.902 22h-2.015l2.437-3.768a2.292 2.292 0 0 1-1.113-.902c-.258-.41-.387-.892-.387-1.447 0-.785.278-1.389.832-1.81.559-.427 1.36-.64 2.403-.64h2.789V22h-1.817v-3.287h-1.125Zm1.125-3.791h-.896c-.469 0-.832.084-1.09.252-.258.168-.387.447-.387.838 0 .379.125.677.375.896.25.219.633.328 1.149.328h.849v-2.314Z" fill="#fff"/></svg>